<svg xmlns="http://www.w3.org/2000/svg" fill="#36BDBD" viewBox="0 0 1024 1024"><path d="M0 512V0h1024v1024H0zm933.333 0V106.146H90.666l-2.822 393.251c-1.553 216.288-.482 400.392 2.38 409.121 4.11 12.539 93.125 15.184 424.156 12.603l418.954-3.267zM186.299 733.917c-3.041-9.279-4.203-106.557-2.581-216.174l2.949-199.304h256v74.927l-80 6.244c-76.8 5.994-80 7.493-80 37.463 0 29.733 3.556 31.517 74.667 37.463l74.667 6.244v74.927l-149.333 12.488-10.667 174.829-40.086 3.882c-26.324 2.549-41.984-1.91-45.616-12.989zm341.345.038c-3.048-9.299-4.215-106.595-2.593-216.212L528 318.439h74.667l10.667 149.854h138.667l10.667-149.854h74.667v424.585h-74.667l-10.667-174.829H613.334l-10.667 174.829-34.74 3.92c-21.926 2.474-36.784-2.317-40.282-12.989z"/></svg>